<mxfile host="app.diagrams.net" modified="2023-04-24T16:01:32.127Z" agent="Mozilla/5.0 (Windows NT 10.0; Win64; x64) AppleWebKit/537.36 (KHTML, like Gecko) Chrome/112.0.0.0 Safari/537.36" etag="nqlBQDZOddj1cc4ABx9N" version="21.2.1" type="device">
  <diagram name="Page-1" id="0783ab3e-0a74-02c8-0abd-f7b4e66b4bec">
    <mxGraphModel dx="1313" dy="676" grid="1" gridSize="10" guides="1" tooltips="1" connect="1" arrows="1" fold="1" page="1" pageScale="1" pageWidth="600" pageHeight="570" background="none" math="0" shadow="0">
      <root>
        <mxCell id="0" />
        <mxCell id="1" parent="0" />
        <mxCell id="wbuntGqTaFYtr3KhO8sW-3" value="" style="ellipse;html=1;shape=startState;fillColor=#000000;strokeColor=#ff0000;" vertex="1" parent="1">
          <mxGeometry x="260" y="10" width="30" height="30" as="geometry" />
        </mxCell>
        <mxCell id="wbuntGqTaFYtr3KhO8sW-4" value="" style="edgeStyle=orthogonalEdgeStyle;html=1;verticalAlign=bottom;endArrow=open;endSize=8;strokeColor=#ff0000;rounded=0;" edge="1" source="wbuntGqTaFYtr3KhO8sW-3" parent="1">
          <mxGeometry relative="1" as="geometry">
            <mxPoint x="275" y="100" as="targetPoint" />
          </mxGeometry>
        </mxCell>
        <mxCell id="wbuntGqTaFYtr3KhO8sW-5" value="Spieler macht Zug" style="ellipse;whiteSpace=wrap;html=1;" vertex="1" parent="1">
          <mxGeometry x="205" y="100" width="140" height="70" as="geometry" />
        </mxCell>
        <mxCell id="wbuntGqTaFYtr3KhO8sW-6" value="" style="html=1;whiteSpace=wrap;aspect=fixed;shape=isoRectangle;" vertex="1" parent="1">
          <mxGeometry x="235" y="198" width="80" height="48" as="geometry" />
        </mxCell>
        <mxCell id="wbuntGqTaFYtr3KhO8sW-7" value="" style="endArrow=open;endFill=1;endSize=12;html=1;rounded=0;" edge="1" parent="1" source="wbuntGqTaFYtr3KhO8sW-5" target="wbuntGqTaFYtr3KhO8sW-6">
          <mxGeometry width="160" relative="1" as="geometry">
            <mxPoint x="190" y="250" as="sourcePoint" />
            <mxPoint x="350" y="250" as="targetPoint" />
          </mxGeometry>
        </mxCell>
        <mxCell id="wbuntGqTaFYtr3KhO8sW-11" value="" style="endArrow=open;endFill=1;endSize=12;html=1;rounded=0;" edge="1" parent="1" source="wbuntGqTaFYtr3KhO8sW-6" target="wbuntGqTaFYtr3KhO8sW-13">
          <mxGeometry width="160" relative="1" as="geometry">
            <mxPoint x="440" y="330" as="sourcePoint" />
            <mxPoint x="550" y="255" as="targetPoint" />
          </mxGeometry>
        </mxCell>
        <mxCell id="wbuntGqTaFYtr3KhO8sW-12" value="Ist Bauernumwandlung" style="text;strokeColor=none;fillColor=none;align=left;verticalAlign=top;spacingLeft=4;spacingRight=4;overflow=hidden;rotatable=0;points=[[0,0.5],[1,0.5]];portConstraint=eastwest;whiteSpace=wrap;html=1;" vertex="1" parent="1">
          <mxGeometry x="315" y="190" width="160" height="26" as="geometry" />
        </mxCell>
        <mxCell id="wbuntGqTaFYtr3KhO8sW-13" value="Öffne PromotionModal" style="ellipse;whiteSpace=wrap;html=1;" vertex="1" parent="1">
          <mxGeometry x="450" y="190" width="140" height="70" as="geometry" />
        </mxCell>
        <mxCell id="wbuntGqTaFYtr3KhO8sW-14" value="" style="endArrow=open;endFill=1;endSize=12;html=1;rounded=0;" edge="1" parent="1" source="wbuntGqTaFYtr3KhO8sW-6" target="wbuntGqTaFYtr3KhO8sW-22">
          <mxGeometry width="160" relative="1" as="geometry">
            <mxPoint x="190" y="250" as="sourcePoint" />
            <mxPoint x="275" y="310" as="targetPoint" />
          </mxGeometry>
        </mxCell>
        <mxCell id="wbuntGqTaFYtr3KhO8sW-22" value="Sende Zug an Backend" style="ellipse;whiteSpace=wrap;html=1;" vertex="1" parent="1">
          <mxGeometry x="205" y="290" width="140" height="70" as="geometry" />
        </mxCell>
        <mxCell id="wbuntGqTaFYtr3KhO8sW-25" value="" style="html=1;whiteSpace=wrap;aspect=fixed;shape=isoRectangle;" vertex="1" parent="1">
          <mxGeometry x="235" y="390" width="80" height="48" as="geometry" />
        </mxCell>
        <mxCell id="wbuntGqTaFYtr3KhO8sW-29" value="" style="endArrow=open;endFill=1;endSize=12;html=1;rounded=0;" edge="1" parent="1" source="wbuntGqTaFYtr3KhO8sW-22" target="wbuntGqTaFYtr3KhO8sW-25">
          <mxGeometry width="160" relative="1" as="geometry">
            <mxPoint x="190" y="360" as="sourcePoint" />
            <mxPoint x="350" y="360" as="targetPoint" />
          </mxGeometry>
        </mxCell>
        <mxCell id="wbuntGqTaFYtr3KhO8sW-31" value="" style="endArrow=open;endFill=1;endSize=12;html=1;rounded=0;" edge="1" parent="1" source="wbuntGqTaFYtr3KhO8sW-25" target="wbuntGqTaFYtr3KhO8sW-33">
          <mxGeometry width="160" relative="1" as="geometry">
            <mxPoint x="200" y="480" as="sourcePoint" />
            <mxPoint x="130" y="414" as="targetPoint" />
          </mxGeometry>
        </mxCell>
        <mxCell id="wbuntGqTaFYtr3KhO8sW-32" value="Ist En Passent" style="text;strokeColor=none;fillColor=none;align=left;verticalAlign=top;spacingLeft=4;spacingRight=4;overflow=hidden;rotatable=0;points=[[0,0.5],[1,0.5]];portConstraint=eastwest;whiteSpace=wrap;html=1;" vertex="1" parent="1">
          <mxGeometry x="150" y="379" width="100" height="26" as="geometry" />
        </mxCell>
        <mxCell id="wbuntGqTaFYtr3KhO8sW-33" value="Lösche geschlagenen Bauern" style="ellipse;whiteSpace=wrap;html=1;" vertex="1" parent="1">
          <mxGeometry y="379" width="140" height="70" as="geometry" />
        </mxCell>
        <mxCell id="wbuntGqTaFYtr3KhO8sW-34" value="" style="endArrow=open;endFill=1;endSize=12;html=1;rounded=0;" edge="1" parent="1" source="wbuntGqTaFYtr3KhO8sW-25" target="wbuntGqTaFYtr3KhO8sW-37">
          <mxGeometry width="160" relative="1" as="geometry">
            <mxPoint x="200" y="590" as="sourcePoint" />
            <mxPoint x="275" y="510" as="targetPoint" />
          </mxGeometry>
        </mxCell>
        <mxCell id="wbuntGqTaFYtr3KhO8sW-36" value="Kein En Passent" style="text;strokeColor=none;fillColor=none;align=left;verticalAlign=top;spacingLeft=4;spacingRight=4;overflow=hidden;rotatable=0;points=[[0,0.5],[1,0.5]];portConstraint=eastwest;whiteSpace=wrap;html=1;" vertex="1" parent="1">
          <mxGeometry x="290" y="438" width="100" height="26" as="geometry" />
        </mxCell>
        <mxCell id="wbuntGqTaFYtr3KhO8sW-37" value="" style="ellipse;html=1;shape=endState;fillColor=#000000;strokeColor=#ff0000;" vertex="1" parent="1">
          <mxGeometry x="260" y="510" width="30" height="30" as="geometry" />
        </mxCell>
        <mxCell id="wbuntGqTaFYtr3KhO8sW-38" value="" style="endArrow=open;endFill=1;endSize=12;html=1;rounded=0;" edge="1" parent="1" source="wbuntGqTaFYtr3KhO8sW-33" target="wbuntGqTaFYtr3KhO8sW-37">
          <mxGeometry width="160" relative="1" as="geometry">
            <mxPoint x="200" y="590" as="sourcePoint" />
            <mxPoint x="360" y="590" as="targetPoint" />
            <Array as="points">
              <mxPoint x="70" y="525" />
            </Array>
          </mxGeometry>
        </mxCell>
        <mxCell id="wbuntGqTaFYtr3KhO8sW-39" value="" style="endArrow=open;endFill=1;endSize=12;html=1;rounded=0;" edge="1" parent="1" source="wbuntGqTaFYtr3KhO8sW-13" target="wbuntGqTaFYtr3KhO8sW-40">
          <mxGeometry width="160" relative="1" as="geometry">
            <mxPoint x="180" y="373" as="sourcePoint" />
            <mxPoint x="520" y="333" as="targetPoint" />
          </mxGeometry>
        </mxCell>
        <mxCell id="wbuntGqTaFYtr3KhO8sW-40" value="Wähle Figur" style="ellipse;whiteSpace=wrap;html=1;" vertex="1" parent="1">
          <mxGeometry x="450" y="293" width="140" height="70" as="geometry" />
        </mxCell>
        <mxCell id="wbuntGqTaFYtr3KhO8sW-41" value="" style="endArrow=open;endFill=1;endSize=12;html=1;rounded=0;" edge="1" parent="1" source="wbuntGqTaFYtr3KhO8sW-40" target="wbuntGqTaFYtr3KhO8sW-42">
          <mxGeometry width="160" relative="1" as="geometry">
            <mxPoint x="180" y="373" as="sourcePoint" />
            <mxPoint x="520" y="443" as="targetPoint" />
          </mxGeometry>
        </mxCell>
        <mxCell id="wbuntGqTaFYtr3KhO8sW-42" value="Lösche Bauern und&lt;br&gt;setze Figur" style="ellipse;whiteSpace=wrap;html=1;" vertex="1" parent="1">
          <mxGeometry x="450" y="397" width="140" height="70" as="geometry" />
        </mxCell>
        <mxCell id="wbuntGqTaFYtr3KhO8sW-43" value="" style="endArrow=open;endFill=1;endSize=12;html=1;rounded=0;" edge="1" parent="1" source="wbuntGqTaFYtr3KhO8sW-42" target="wbuntGqTaFYtr3KhO8sW-44">
          <mxGeometry width="160" relative="1" as="geometry">
            <mxPoint x="180" y="363" as="sourcePoint" />
            <mxPoint x="530" y="513" as="targetPoint" />
          </mxGeometry>
        </mxCell>
        <mxCell id="wbuntGqTaFYtr3KhO8sW-44" value="Sende Zug an Backend" style="ellipse;whiteSpace=wrap;html=1;" vertex="1" parent="1">
          <mxGeometry x="450" y="493" width="140" height="70" as="geometry" />
        </mxCell>
        <mxCell id="wbuntGqTaFYtr3KhO8sW-45" value="" style="endArrow=open;endFill=1;endSize=12;html=1;rounded=0;" edge="1" parent="1" source="wbuntGqTaFYtr3KhO8sW-44" target="wbuntGqTaFYtr3KhO8sW-37">
          <mxGeometry width="160" relative="1" as="geometry">
            <mxPoint x="200" y="360" as="sourcePoint" />
            <mxPoint x="360" y="360" as="targetPoint" />
          </mxGeometry>
        </mxCell>
      </root>
    </mxGraphModel>
  </diagram>
</mxfile>
